<svg version="1.1" id="Layer_1" xmlns="http://www.w3.org/2000/svg" xmlns:xlink="http://www.w3.org/1999/xlink" x="0px" y="0px"
	 width="100%" viewBox="0 0 500 500" enable-background="new 0 0 500 500" xml:space="preserve">
<path fill="#FFFEFE" opacity="1.000000" stroke="none" 
	d="
M281.000000,501.000000 
	C187.333359,501.000000 94.166710,501.000000 1.000050,501.000000 
	C1.000033,334.333405 1.000033,167.666794 1.000017,1.000139 
	C167.666565,1.000093 334.333130,1.000093 500.999756,1.000046 
	C500.999847,167.666519 500.999847,334.333038 500.999939,500.999786 
	C427.833344,501.000000 354.666656,501.000000 281.000000,501.000000 
M425.500122,262.372040 
	C371.752472,262.372040 318.004791,262.372040 264.250885,262.372040 
	C264.250885,329.228180 264.250885,395.453674 264.250885,461.640442 
	C330.845306,461.640442 397.175995,461.640442 463.530151,461.640442 
	C463.530151,395.175232 463.530151,329.104065 463.530151,262.372223 
	C451.043213,262.372223 438.771667,262.372223 425.500122,262.372040 
M329.500031,30.778099 
	C316.841400,30.801786 304.164337,31.262651 291.529175,30.729927 
	C278.080719,30.162909 263.982758,44.238029 263.991364,58.872787 
	C264.019379,106.510803 263.929352,154.149033 264.045197,201.786774 
	C264.082245,217.020401 277.399811,229.975250 292.656891,229.986343 
	C340.128326,230.020905 387.599823,230.008392 435.071259,229.968018 
	C437.208069,229.966202 439.409485,229.763901 441.470581,229.229691 
	C454.869354,225.756866 463.288818,214.711151 463.352386,200.162125 
	C463.467377,173.845108 463.402039,147.527222 463.386597,121.209724 
	C463.374146,100.056396 463.103973,78.900276 463.373657,57.750816 
	C463.534912,45.106281 449.863281,30.489477 435.933502,30.679695 
	C400.795105,31.159527 365.645294,30.800735 329.500031,30.778099 
M233.998886,204.083588 
	C234.003799,155.942078 234.019806,107.800568 234.007431,59.659054 
	C234.003250,43.412331 222.104614,30.928816 205.984802,30.878931 
	C158.343903,30.731499 110.701981,30.730373 63.061058,30.873096 
	C46.769909,30.921904 34.972591,43.190845 34.964001,59.513420 
	C34.939274,106.488777 35.350540,153.469543 34.709816,200.436172 
	C34.522812,214.143738 47.352726,230.356628 64.465347,230.171188 
	C110.768959,229.669418 157.081589,230.000412 203.390640,229.998734 
	C219.720978,229.998138 230.599838,221.097824 233.998886,204.083588 
M34.952400,294.558258 
	C34.956123,341.195740 34.928043,387.833282 34.982922,434.470703 
	C34.999416,448.491333 47.666771,461.876709 61.493412,461.923798 
	C110.129044,462.089355 158.765884,462.082886 207.401566,461.927673 
	C220.682526,461.885315 233.917664,448.633362 233.952133,435.476105 
	C234.079987,386.673645 234.073364,337.870483 233.956909,289.067963 
	C233.925476,275.900391 221.083405,262.972168 207.894547,262.935059 
	C158.926407,262.797180 109.957451,262.824066 60.989552,262.998047 
	C57.494541,263.010468 53.641224,264.049561 50.579433,265.741882 
	C39.766426,271.718536 34.124039,280.913849 34.952400,294.558258 
z"/>
<path fill="#019D52" opacity="1.000000" stroke="none" 
	d="
M426.000122,262.372131 
	C438.771667,262.372223 451.043213,262.372223 463.530151,262.372223 
	C463.530151,329.104065 463.530151,395.175232 463.530151,461.640442 
	C397.175995,461.640442 330.845306,461.640442 264.250885,461.640442 
	C264.250885,395.453674 264.250885,329.228180 264.250885,262.372040 
	C318.004791,262.372040 371.752472,262.372040 426.000122,262.372131 
z"/>
<path fill="#DF2C2C" opacity="1.000000" stroke="none" 
	d="
M330.000061,30.778059 
	C365.645294,30.800735 400.795105,31.159527 435.933502,30.679695 
	C449.863281,30.489477 463.534912,45.106281 463.373657,57.750816 
	C463.103973,78.900276 463.374146,100.056396 463.386597,121.209724 
	C463.402039,147.527222 463.467377,173.845108 463.352386,200.162125 
	C463.288818,214.711151 454.869354,225.756866 441.470581,229.229691 
	C439.409485,229.763901 437.208069,229.966202 435.071259,229.968018 
	C387.599823,230.008392 340.128326,230.020905 292.656891,229.986343 
	C277.399811,229.975250 264.082245,217.020401 264.045197,201.786774 
	C263.929352,154.149033 264.019379,106.510803 263.991364,58.872787 
	C263.982758,44.238029 278.080719,30.162909 291.529175,30.729927 
	C304.164337,31.262651 316.841400,30.801786 330.000061,30.778059 
z"/>
<path fill="#DF2C2C" opacity="1.000000" stroke="none" 
	d="
M233.988098,204.533936 
	C230.599838,221.097824 219.720978,229.998138 203.390640,229.998734 
	C157.081589,230.000412 110.768959,229.669418 64.465347,230.171188 
	C47.352726,230.356628 34.522812,214.143738 34.709816,200.436172 
	C35.350540,153.469543 34.939274,106.488777 34.964001,59.513420 
	C34.972591,43.190845 46.769909,30.921904 63.061058,30.873096 
	C110.701981,30.730373 158.343903,30.731499 205.984802,30.878931 
	C222.104614,30.928816 234.003250,43.412331 234.007431,59.659054 
	C234.019806,107.800568 234.003799,155.942078 233.988098,204.533936 
z"/>
<path fill="#DF2C2C" opacity="1.000000" stroke="none" 
	d="
M34.952461,294.069885 
	C34.124039,280.913849 39.766426,271.718536 50.579433,265.741882 
	C53.641224,264.049561 57.494541,263.010468 60.989552,262.998047 
	C109.957451,262.824066 158.926407,262.797180 207.894547,262.935059 
	C221.083405,262.972168 233.925476,275.900391 233.956909,289.067963 
	C234.073364,337.870483 234.079987,386.673645 233.952133,435.476105 
	C233.917664,448.633362 220.682526,461.885315 207.401566,461.927673 
	C158.765884,462.082886 110.129044,462.089355 61.493412,461.923798 
	C47.666771,461.876709 34.999416,448.491333 34.982922,434.470703 
	C34.928043,387.833282 34.956123,341.195740 34.952461,294.069885 
z"/>
</svg>